<mxfile host="app.diagrams.net" modified="2022-08-25T16:17:35.676Z" agent="5.0 (Windows NT 10.0; Win64; x64) AppleWebKit/537.36 (KHTML, like Gecko) Chrome/104.0.0.0 Safari/537.36" etag="VBlZAPaEcC_5jFdjsNCm" version="20.2.7" type="github">
  <diagram id="6a731a19-8d31-9384-78a2-239565b7b9f0" name="Page-1">
    <mxGraphModel dx="1477" dy="643" grid="1" gridSize="10" guides="1" tooltips="1" connect="1" arrows="1" fold="1" page="1" pageScale="0.6" pageWidth="1169" pageHeight="827" background="none" math="0" shadow="0">
      <root>
        <mxCell id="0" />
        <mxCell id="1" parent="0" />
        <mxCell id="2" value="Início" style="shape=mxgraph.flowchart.terminator;strokeWidth=2;gradientColor=none;gradientDirection=north;fontStyle=0;html=1;" parent="1" vertex="1">
          <mxGeometry x="45" y="20" width="120" height="30" as="geometry" />
        </mxCell>
        <mxCell id="7" style="fontStyle=1;strokeColor=#003366;strokeWidth=1;html=1;" parent="1" source="2" edge="1">
          <mxGeometry relative="1" as="geometry">
            <mxPoint x="105" y="90" as="targetPoint" />
          </mxGeometry>
        </mxCell>
        <mxCell id="8" style="fontStyle=1;strokeColor=#003366;strokeWidth=1;html=1;" parent="1" edge="1">
          <mxGeometry relative="1" as="geometry">
            <mxPoint x="105" y="170" as="sourcePoint" />
            <mxPoint x="105" y="210" as="targetPoint" />
          </mxGeometry>
        </mxCell>
        <mxCell id="12" value="" style="edgeStyle=elbowEdgeStyle;elbow=horizontal;fontColor=#001933;fontStyle=1;strokeColor=#003366;strokeWidth=1;html=1;" parent="1" edge="1">
          <mxGeometry x="-215.62" y="-67" width="100" height="100" as="geometry">
            <mxPoint x="104.38" y="380" as="sourcePoint" />
            <mxPoint x="104.38" y="443" as="targetPoint" />
          </mxGeometry>
        </mxCell>
        <mxCell id="17" value="" style="edgeStyle=elbowEdgeStyle;elbow=horizontal;fontStyle=1;strokeColor=#003366;strokeWidth=1;html=1;exitX=0.5;exitY=1;exitDx=0;exitDy=0;" parent="1" source="T-03gZ5BLyZ3TBfmH24h-59" edge="1">
          <mxGeometry x="-215" y="-40" width="100" height="100" as="geometry">
            <mxPoint x="105" y="550" as="sourcePoint" />
            <mxPoint x="106.33333333333348" y="560" as="targetPoint" />
          </mxGeometry>
        </mxCell>
        <mxCell id="40" value="Fim" style="shape=mxgraph.flowchart.terminator;strokeWidth=2;gradientColor=none;gradientDirection=north;fontStyle=0;html=1;" parent="1" vertex="1">
          <mxGeometry x="530" y="540" width="120" height="31" as="geometry" />
        </mxCell>
        <mxCell id="T-03gZ5BLyZ3TBfmH24h-60" value="" style="edgeStyle=orthogonalEdgeStyle;rounded=0;orthogonalLoop=1;jettySize=auto;html=1;" edge="1" parent="1" source="T-03gZ5BLyZ3TBfmH24h-55" target="T-03gZ5BLyZ3TBfmH24h-56">
          <mxGeometry relative="1" as="geometry">
            <Array as="points">
              <mxPoint x="105" y="150" />
              <mxPoint x="105" y="150" />
            </Array>
          </mxGeometry>
        </mxCell>
        <mxCell id="T-03gZ5BLyZ3TBfmH24h-55" value="&lt;span style=&quot;font-size:11.0pt;line-height:107%;&lt;br/&gt;font-family:&amp;quot;Calibri&amp;quot;,sans-serif;mso-ascii-theme-font:minor-latin;mso-fareast-font-family:&lt;br/&gt;Calibri;mso-fareast-theme-font:minor-latin;mso-hansi-theme-font:minor-latin;&lt;br/&gt;mso-bidi-font-family:&amp;quot;Times New Roman&amp;quot;;mso-bidi-theme-font:minor-bidi;&lt;br/&gt;mso-ansi-language:PT-BR;mso-fareast-language:EN-US;mso-bidi-language:AR-SA&quot;&gt;Pegue&lt;br/&gt;uma panela, ovo, água&lt;/span&gt;" style="rounded=1;whiteSpace=wrap;html=1;" vertex="1" parent="1">
          <mxGeometry x="45" y="90" width="120" height="60" as="geometry" />
        </mxCell>
        <mxCell id="T-03gZ5BLyZ3TBfmH24h-56" value="&lt;br&gt;&lt;span&gt;&lt;br&gt;Coloque&lt;br&gt;água na panela&lt;/span&gt;&lt;br&gt;&lt;br&gt;&lt;br&gt;" style="rounded=1;whiteSpace=wrap;html=1;" vertex="1" parent="1">
          <mxGeometry x="45" y="200" width="120" height="70" as="geometry" />
        </mxCell>
        <mxCell id="T-03gZ5BLyZ3TBfmH24h-57" value="&lt;br&gt;&lt;span style=&quot;font-size:11.0pt;line-height:107%;&lt;br/&gt;font-family:&amp;quot;Calibri&amp;quot;,sans-serif;mso-ascii-theme-font:minor-latin;mso-fareast-font-family:&lt;br/&gt;Calibri;mso-fareast-theme-font:minor-latin;mso-hansi-theme-font:minor-latin;&lt;br/&gt;mso-bidi-font-family:&amp;quot;Times New Roman&amp;quot;;mso-bidi-theme-font:minor-bidi;&lt;br/&gt;mso-ansi-language:PT-BR;mso-fareast-language:EN-US;mso-bidi-language:AR-SA&quot;&gt;Acenda&lt;br/&gt;o fogo&lt;/span&gt;" style="rounded=1;whiteSpace=wrap;html=1;" vertex="1" parent="1">
          <mxGeometry x="45" y="320" width="120" height="60" as="geometry" />
        </mxCell>
        <mxCell id="T-03gZ5BLyZ3TBfmH24h-59" value="&lt;br&gt;&lt;span style=&quot;font-size:11.0pt;line-height:107%;&lt;br/&gt;font-family:&amp;quot;Calibri&amp;quot;,sans-serif;mso-ascii-theme-font:minor-latin;mso-fareast-font-family:&lt;br/&gt;Calibri;mso-fareast-theme-font:minor-latin;mso-hansi-theme-font:minor-latin;&lt;br/&gt;mso-bidi-font-family:&amp;quot;Times New Roman&amp;quot;;mso-bidi-theme-font:minor-bidi;&lt;br/&gt;mso-ansi-language:PT-BR;mso-fareast-language:EN-US;mso-bidi-language:AR-SA&quot;&gt;Coloque&lt;br/&gt;a panela no fogo&lt;/span&gt;" style="rounded=1;whiteSpace=wrap;html=1;" vertex="1" parent="1">
          <mxGeometry x="46" y="440" width="120" height="60" as="geometry" />
        </mxCell>
        <mxCell id="T-03gZ5BLyZ3TBfmH24h-64" value="&lt;span style=&quot;font-size:11.0pt;line-height:107%;&lt;br/&gt;font-family:&amp;quot;Calibri&amp;quot;,sans-serif;mso-ascii-theme-font:minor-latin;mso-fareast-font-family:&lt;br/&gt;Calibri;mso-fareast-theme-font:minor-latin;mso-hansi-theme-font:minor-latin;&lt;br/&gt;mso-bidi-font-family:&amp;quot;Times New Roman&amp;quot;;mso-bidi-theme-font:minor-bidi;&lt;br/&gt;mso-ansi-language:PT-BR;mso-fareast-language:EN-US;mso-bidi-language:AR-SA&quot;&gt;Coloque&lt;br/&gt;o ovo na panela com a água fervendo&lt;/span&gt;" style="rounded=1;whiteSpace=wrap;html=1;" vertex="1" parent="1">
          <mxGeometry x="210" y="490" width="120" height="50" as="geometry" />
        </mxCell>
        <mxCell id="T-03gZ5BLyZ3TBfmH24h-93" style="edgeStyle=orthogonalEdgeStyle;rounded=0;orthogonalLoop=1;jettySize=auto;html=1;" edge="1" parent="1" source="T-03gZ5BLyZ3TBfmH24h-65">
          <mxGeometry relative="1" as="geometry">
            <mxPoint x="560" y="540" as="targetPoint" />
          </mxGeometry>
        </mxCell>
        <mxCell id="T-03gZ5BLyZ3TBfmH24h-65" value="&lt;br&gt;&lt;span&gt;&lt;br&gt;Conte&lt;br&gt;8 minutos no relógio&lt;/span&gt;&lt;br&gt;&lt;br&gt;&lt;br&gt;" style="rounded=1;whiteSpace=wrap;html=1;" vertex="1" parent="1">
          <mxGeometry x="370" y="490" width="120" height="47" as="geometry" />
        </mxCell>
        <mxCell id="T-03gZ5BLyZ3TBfmH24h-66" value="&lt;span style=&quot;font-size:11.0pt;line-height:107%;&lt;br/&gt;font-family:&amp;quot;Calibri&amp;quot;,sans-serif;mso-ascii-theme-font:minor-latin;mso-fareast-font-family:&lt;br/&gt;Calibri;mso-fareast-theme-font:minor-latin;mso-hansi-theme-font:minor-latin;&lt;br/&gt;mso-bidi-font-family:&amp;quot;Times New Roman&amp;quot;;mso-bidi-theme-font:minor-bidi;&lt;br/&gt;mso-ansi-language:PT-BR;mso-fareast-language:EN-US;mso-bidi-language:AR-SA&quot;&gt;Retire&lt;br/&gt;quando estiver pronto&lt;/span&gt;" style="rounded=1;whiteSpace=wrap;html=1;" vertex="1" parent="1">
          <mxGeometry x="200" y="597" width="120" height="60" as="geometry" />
        </mxCell>
        <mxCell id="T-03gZ5BLyZ3TBfmH24h-98" style="edgeStyle=orthogonalEdgeStyle;rounded=0;orthogonalLoop=1;jettySize=auto;html=1;entryX=0.237;entryY=1.003;entryDx=0;entryDy=0;entryPerimeter=0;" edge="1" parent="1" source="T-03gZ5BLyZ3TBfmH24h-67" target="40">
          <mxGeometry relative="1" as="geometry" />
        </mxCell>
        <mxCell id="T-03gZ5BLyZ3TBfmH24h-67" value="&#xa;&lt;span style=&quot;color: rgb(0, 0, 0); font-family: Helvetica; font-size: 12px; font-style: normal; font-variant-ligatures: normal; font-variant-caps: normal; font-weight: 400; letter-spacing: normal; orphans: 2; text-align: center; text-indent: 0px; text-transform: none; widows: 2; word-spacing: 0px; -webkit-text-stroke-width: 0px; background-color: rgb(248, 249, 250); text-decoration-thickness: initial; text-decoration-style: initial; text-decoration-color: initial; float: none; display: inline !important;&quot;&gt;Desligue&lt;/span&gt;&lt;br style=&quot;color: rgb(0, 0, 0); font-family: Helvetica; font-size: 12px; font-style: normal; font-variant-ligatures: normal; font-variant-caps: normal; font-weight: 400; letter-spacing: normal; orphans: 2; text-align: center; text-indent: 0px; text-transform: none; widows: 2; word-spacing: 0px; -webkit-text-stroke-width: 0px; background-color: rgb(248, 249, 250); text-decoration-thickness: initial; text-decoration-style: initial; text-decoration-color: initial;&quot;&gt;&lt;span style=&quot;color: rgb(0, 0, 0); font-family: Helvetica; font-size: 12px; font-style: normal; font-variant-ligatures: normal; font-variant-caps: normal; font-weight: 400; letter-spacing: normal; orphans: 2; text-align: center; text-indent: 0px; text-transform: none; widows: 2; word-spacing: 0px; -webkit-text-stroke-width: 0px; background-color: rgb(248, 249, 250); text-decoration-thickness: initial; text-decoration-style: initial; text-decoration-color: initial; float: none; display: inline !important;&quot;&gt;o fogo&lt;/span&gt;&#xa;&#xa;" style="rounded=1;whiteSpace=wrap;html=1;" vertex="1" parent="1">
          <mxGeometry x="370" y="590" width="120" height="60" as="geometry" />
        </mxCell>
        <mxCell id="T-03gZ5BLyZ3TBfmH24h-72" value="" style="edgeStyle=elbowEdgeStyle;elbow=horizontal;fontStyle=1;strokeColor=#003366;strokeWidth=1;html=1;" edge="1" parent="1">
          <mxGeometry x="-216.54" y="100" width="100" height="100" as="geometry">
            <mxPoint x="104.37" y="980" as="sourcePoint" />
            <mxPoint x="104.4599999999997" y="1020" as="targetPoint" />
          </mxGeometry>
        </mxCell>
        <mxCell id="T-03gZ5BLyZ3TBfmH24h-78" value="" style="edgeStyle=elbowEdgeStyle;elbow=horizontal;fontStyle=1;strokeColor=#003366;strokeWidth=1;html=1;exitX=1;exitY=0.5;exitDx=0;exitDy=0;entryX=0;entryY=0.5;entryDx=0;entryDy=0;" edge="1" parent="1" source="T-03gZ5BLyZ3TBfmH24h-85" target="T-03gZ5BLyZ3TBfmH24h-66">
          <mxGeometry x="-151" y="20" width="100" height="100" as="geometry">
            <mxPoint x="169.99999999999977" y="590" as="sourcePoint" />
            <mxPoint x="170.25" y="650" as="targetPoint" />
          </mxGeometry>
        </mxCell>
        <mxCell id="T-03gZ5BLyZ3TBfmH24h-84" value="" style="edgeStyle=orthogonalEdgeStyle;rounded=0;orthogonalLoop=1;jettySize=auto;html=1;" edge="1" parent="1">
          <mxGeometry relative="1" as="geometry">
            <mxPoint x="105.37" y="269.9999999999999" as="sourcePoint" />
            <mxPoint x="105.37" y="320.0000000000001" as="targetPoint" />
            <Array as="points">
              <mxPoint x="105.37" y="270" />
              <mxPoint x="105.37" y="270" />
            </Array>
          </mxGeometry>
        </mxCell>
        <mxCell id="T-03gZ5BLyZ3TBfmH24h-85" value="Espere&lt;br&gt;água ferver" style="rhombus;whiteSpace=wrap;html=1;" vertex="1" parent="1">
          <mxGeometry x="40" y="560" width="130" height="80" as="geometry" />
        </mxCell>
        <mxCell id="T-03gZ5BLyZ3TBfmH24h-88" value="" style="edgeStyle=elbowEdgeStyle;elbow=horizontal;fontStyle=1;strokeColor=#003366;strokeWidth=1;html=1;entryX=0;entryY=0.5;entryDx=0;entryDy=0;" edge="1" parent="1">
          <mxGeometry x="-141" y="-78.5" width="100" height="100" as="geometry">
            <mxPoint x="170" y="600" as="sourcePoint" />
            <mxPoint x="210" y="528.5" as="targetPoint" />
          </mxGeometry>
        </mxCell>
        <mxCell id="T-03gZ5BLyZ3TBfmH24h-90" value="" style="edgeStyle=elbowEdgeStyle;elbow=horizontal;fontStyle=1;strokeColor=#003366;strokeWidth=1;html=1;exitX=1;exitY=0.5;exitDx=0;exitDy=0;" edge="1" parent="1" source="T-03gZ5BLyZ3TBfmH24h-66">
          <mxGeometry x="48.360000000000014" y="30" width="100" height="100" as="geometry">
            <mxPoint x="369.36" y="570.0000000000001" as="sourcePoint" />
            <mxPoint x="370" y="627" as="targetPoint" />
          </mxGeometry>
        </mxCell>
        <mxCell id="T-03gZ5BLyZ3TBfmH24h-91" value="" style="edgeStyle=elbowEdgeStyle;elbow=horizontal;fontStyle=1;strokeColor=#003366;strokeWidth=1;html=1;exitX=1;exitY=0.6;exitDx=0;exitDy=0;entryX=0.002;entryY=0.642;entryDx=0;entryDy=0;exitPerimeter=0;entryPerimeter=0;" edge="1" parent="1" source="T-03gZ5BLyZ3TBfmH24h-64" target="T-03gZ5BLyZ3TBfmH24h-65">
          <mxGeometry x="54.360000000000014" y="-67" width="100" height="100" as="geometry">
            <mxPoint x="340" y="530" as="sourcePoint" />
            <mxPoint x="376" y="530" as="targetPoint" />
            <Array as="points">
              <mxPoint x="350" y="520" />
            </Array>
          </mxGeometry>
        </mxCell>
      </root>
    </mxGraphModel>
  </diagram>
</mxfile>
